# xmcd
#
# Track frame offsets: 
#        150
#        26501
#        45294
#        63904
#        91939
#        108239
#        125095
#        144463
#        165663
#        184455
#        209637
#        234775
#        261217
#        273038
#        293077
#
# Disc length: 4157 seconds
#
# Revision: 1
# Processed by: cddbd v1.5.2PL0 Copyright (c) Steve Scherf et al.
# Submitted via: ExactAudioCopyFreeDBPlugin 1.0
#
DISCID=d0103b0f
DTITLE=NOX, Gerd Köster and Dirk Raulf - Gabelfrühstück {Poise,13 A-B} C
DTITLE=D1
DYEAR=2006
DGENRE=Jazz
TTITLE0=Es Regnet Fisch
TTITLE1=So Fern
TTITLE2=Wenn Die Nacht Zu Ende Geht
TTITLE3=Egal-Walzer
TTITLE4=Bernsteinfliegentraum
TTITLE5=Werktag
TTITLE6=Zufall
TTITLE7=Hippiemusik
TTITLE8=Jazz
TTITLE9=Federleicht
TTITLE10=Mädchen
TTITLE11=Bleib Hier
TTITLE12=Ermesse-Spielraum
TTITLE13=Lebenslang
TTITLE14=Zeit
EXTD=YEAR: 2006
EXTT0=
EXTT1=
EXTT2=
EXTT3=
EXTT4=
EXTT5=
EXTT6=
EXTT7=
EXTT8=
EXTT9=
EXTT10=
EXTT11=
EXTT12=
EXTT13=
EXTT14=
PLAYORDER=
